<mxfile host="Electron" modified="2023-09-30T14:39:47.744Z" agent="Mozilla/5.0 (X11; Linux x86_64) AppleWebKit/537.36 (KHTML, like Gecko) draw.io/22.0.0 Chrome/114.0.5735.289 Electron/25.8.3 Safari/537.36" etag="H-0zBg29fiJZX6v2RA_N" version="22.0.0" type="device">
  <diagram name="Page-1" id="fo18u6Ch1KVScq3Fo-Wy">
    <mxGraphModel dx="1814" dy="1072" grid="1" gridSize="9.8425" guides="1" tooltips="1" connect="1" arrows="1" fold="1" page="1" pageScale="1" pageWidth="827" pageHeight="1169" math="0" shadow="0">
      <root>
        <object label="" description="Use Edit-&gt;Edit Data... on the document to configure the &quot;description&quot; property and modify this text.&#xa;When creating a new page, use the Extras-&gt;Edit Diagram... function to copy and paste the raw code for the template page." rev="A0" size="A4" scale="1:1" author="John Doe" part_num="" dwg_no="" serial_num="" extra_label="Part #" id="0">
          <mxCell />
        </object>
        <object label="Title Block" id="1">
          <mxCell style="locked=1;" parent="0" />
        </object>
        <mxCell id="BJZrzUYKFe9HMTDBOYGV-1" value="" style="rounded=0;whiteSpace=wrap;html=1;fillColor=none;movable=1;resizable=1;rotatable=1;deletable=1;editable=1;locked=0;connectable=1;" parent="1" vertex="1">
          <mxGeometry x="19.685" y="19.685" width="787.4" height="1122.0449999999998" as="geometry" />
        </mxCell>
        <mxCell id="BJZrzUYKFe9HMTDBOYGV-2" value="" style="rounded=0;whiteSpace=wrap;html=1;fillColor=none;strokeWidth=1;movable=1;resizable=1;rotatable=1;deletable=1;editable=1;locked=0;connectable=1;" parent="1" vertex="1">
          <mxGeometry x="39.37" y="39.37" width="748.03" height="1082.675" as="geometry" />
        </mxCell>
        <mxCell id="BJZrzUYKFe9HMTDBOYGV-27" value="" style="endArrow=none;html=1;rounded=0;movable=1;resizable=1;rotatable=1;deletable=1;editable=1;locked=0;connectable=1;" parent="1" edge="1">
          <mxGeometry width="50" height="50" relative="1" as="geometry">
            <mxPoint x="609.9699999999999" y="39.52" as="sourcePoint" />
            <mxPoint x="609.9699999999999" y="19.52" as="targetPoint" />
          </mxGeometry>
        </mxCell>
        <mxCell id="BJZrzUYKFe9HMTDBOYGV-35" value="" style="endArrow=none;html=1;rounded=0;movable=1;resizable=1;rotatable=1;deletable=1;editable=1;locked=0;connectable=1;" parent="1" edge="1">
          <mxGeometry width="50" height="50" relative="1" as="geometry">
            <mxPoint x="216.53" y="39.52" as="sourcePoint" />
            <mxPoint x="216.53" y="19.52" as="targetPoint" />
          </mxGeometry>
        </mxCell>
        <mxCell id="BJZrzUYKFe9HMTDBOYGV-45" value="" style="endArrow=none;html=1;rounded=0;movable=1;resizable=1;rotatable=1;deletable=1;editable=1;locked=0;connectable=1;" parent="1" edge="1">
          <mxGeometry width="50" height="50" relative="1" as="geometry">
            <mxPoint x="19.520000000000007" y="383.86" as="sourcePoint" />
            <mxPoint x="39.57000000000001" y="383.86" as="targetPoint" />
          </mxGeometry>
        </mxCell>
        <mxCell id="BJZrzUYKFe9HMTDBOYGV-46" value="" style="endArrow=none;html=1;rounded=0;movable=1;resizable=1;rotatable=1;deletable=1;editable=1;locked=0;connectable=1;" parent="1" edge="1">
          <mxGeometry width="50" height="50" relative="1" as="geometry">
            <mxPoint x="19.512500000000003" y="777.5625" as="sourcePoint" />
            <mxPoint x="39.5625" y="777.5625" as="targetPoint" />
          </mxGeometry>
        </mxCell>
        <mxCell id="BJZrzUYKFe9HMTDBOYGV-47" value="" style="endArrow=none;html=1;rounded=0;movable=1;resizable=1;rotatable=1;deletable=1;editable=1;locked=0;connectable=1;" parent="1" edge="1">
          <mxGeometry width="50" height="50" relative="1" as="geometry">
            <mxPoint x="787.2225000000001" y="383.85249999999996" as="sourcePoint" />
            <mxPoint x="807.2725" y="383.85249999999996" as="targetPoint" />
          </mxGeometry>
        </mxCell>
        <mxCell id="BJZrzUYKFe9HMTDBOYGV-49" value="B" style="text;html=1;strokeColor=none;fillColor=none;align=center;verticalAlign=middle;whiteSpace=wrap;rounded=0;fontFamily=Open Sans;fontSize=18;movable=1;resizable=1;rotatable=1;deletable=1;editable=1;locked=0;connectable=1;" parent="1" vertex="1">
          <mxGeometry x="19.7" y="275.59" width="19.685" height="19.685" as="geometry" />
        </mxCell>
        <mxCell id="BJZrzUYKFe9HMTDBOYGV-52" value="C" style="text;html=1;strokeColor=none;fillColor=none;align=center;verticalAlign=middle;whiteSpace=wrap;rounded=0;fontFamily=Open Sans;fontSize=18;movable=1;resizable=1;rotatable=1;deletable=1;editable=1;locked=0;connectable=1;" parent="1" vertex="1">
          <mxGeometry x="19.68249999999999" y="472.4425" width="19.685" height="19.685" as="geometry" />
        </mxCell>
        <mxCell id="BJZrzUYKFe9HMTDBOYGV-53" value="D" style="text;html=1;strokeColor=none;fillColor=none;align=center;verticalAlign=middle;whiteSpace=wrap;rounded=0;fontFamily=Open Sans;fontSize=18;movable=1;resizable=1;rotatable=1;deletable=1;editable=1;locked=0;connectable=1;" parent="1" vertex="1">
          <mxGeometry x="19.685000000000002" y="669.295" width="19.685" height="19.685" as="geometry" />
        </mxCell>
        <mxCell id="BJZrzUYKFe9HMTDBOYGV-54" value="E" style="text;html=1;strokeColor=none;fillColor=none;align=center;verticalAlign=middle;whiteSpace=wrap;rounded=0;fontFamily=Open Sans;fontSize=18;movable=1;resizable=1;rotatable=1;deletable=1;editable=1;locked=0;connectable=1;" parent="1" vertex="1">
          <mxGeometry x="19.697500000000005" y="866.14" width="19.685" height="19.685" as="geometry" />
        </mxCell>
        <mxCell id="BJZrzUYKFe9HMTDBOYGV-55" value="B" style="text;html=1;strokeColor=none;fillColor=none;align=center;verticalAlign=middle;whiteSpace=wrap;rounded=0;fontFamily=Open Sans;fontSize=18;movable=1;resizable=1;rotatable=1;deletable=1;editable=1;locked=0;connectable=1;" parent="1" vertex="1">
          <mxGeometry x="787.4025" y="275.59250000000003" width="19.685" height="19.685" as="geometry" />
        </mxCell>
        <mxCell id="BJZrzUYKFe9HMTDBOYGV-56" value="C" style="text;html=1;strokeColor=none;fillColor=none;align=center;verticalAlign=middle;whiteSpace=wrap;rounded=0;fontFamily=Open Sans;fontSize=18;movable=1;resizable=1;rotatable=1;deletable=1;editable=1;locked=0;connectable=1;" parent="1" vertex="1">
          <mxGeometry x="787.3950000000001" y="472.44500000000005" width="19.685" height="19.685" as="geometry" />
        </mxCell>
        <mxCell id="BJZrzUYKFe9HMTDBOYGV-57" value="D" style="text;html=1;strokeColor=none;fillColor=none;align=center;verticalAlign=middle;whiteSpace=wrap;rounded=0;fontFamily=Open Sans;fontSize=18;movable=1;resizable=1;rotatable=1;deletable=1;editable=1;locked=0;connectable=1;" parent="1" vertex="1">
          <mxGeometry x="787.3974999999999" y="669.2875" width="19.685" height="19.685" as="geometry" />
        </mxCell>
        <mxCell id="BJZrzUYKFe9HMTDBOYGV-60" value="1" style="text;html=1;strokeColor=none;fillColor=none;align=center;verticalAlign=middle;whiteSpace=wrap;rounded=0;fontFamily=Open Sans;fontSize=18;movable=1;resizable=1;rotatable=1;deletable=1;editable=1;locked=0;connectable=1;" parent="1" vertex="1">
          <mxGeometry x="108.00500000000002" y="19.685000000000002" width="19.685" height="19.685" as="geometry" />
        </mxCell>
        <mxCell id="BJZrzUYKFe9HMTDBOYGV-61" value="2" style="text;html=1;strokeColor=none;fillColor=none;align=center;verticalAlign=middle;whiteSpace=wrap;rounded=0;fontFamily=Open Sans;fontSize=18;movable=1;resizable=1;rotatable=1;deletable=1;editable=1;locked=0;connectable=1;" parent="1" vertex="1">
          <mxGeometry x="304.84749999999997" y="19.67750000000001" width="19.685" height="19.685" as="geometry" />
        </mxCell>
        <mxCell id="BJZrzUYKFe9HMTDBOYGV-62" value="3" style="text;html=1;strokeColor=none;fillColor=none;align=center;verticalAlign=middle;whiteSpace=wrap;rounded=0;fontFamily=Open Sans;fontSize=18;movable=1;resizable=1;rotatable=1;deletable=1;editable=1;locked=0;connectable=1;" parent="1" vertex="1">
          <mxGeometry x="501.69999999999993" y="19.680000000000007" width="19.685" height="19.685" as="geometry" />
        </mxCell>
        <mxCell id="BJZrzUYKFe9HMTDBOYGV-63" value="4" style="text;html=1;strokeColor=none;fillColor=none;align=center;verticalAlign=middle;whiteSpace=wrap;rounded=0;fontFamily=Open Sans;fontSize=18;movable=1;resizable=1;rotatable=1;deletable=1;editable=1;locked=0;connectable=1;" parent="1" vertex="1">
          <mxGeometry x="698.5524999999999" y="19.682500000000005" width="19.685" height="19.685" as="geometry" />
        </mxCell>
        <mxCell id="BJZrzUYKFe9HMTDBOYGV-10" value="" style="endArrow=none;html=1;rounded=0;strokeWidth=3;movable=1;resizable=1;rotatable=1;deletable=1;editable=1;locked=0;connectable=1;" parent="1" edge="1">
          <mxGeometry width="50" height="50" relative="1" as="geometry">
            <mxPoint x="413.3800000000001" y="1141.7259999999999" as="sourcePoint" />
            <mxPoint x="413.3800000000001" y="1102.34" as="targetPoint" />
          </mxGeometry>
        </mxCell>
        <mxCell id="BJZrzUYKFe9HMTDBOYGV-4" value="" style="endArrow=none;html=1;rounded=0;strokeWidth=3;targetPerimeterSpacing=0;movable=1;resizable=1;rotatable=1;deletable=1;editable=1;locked=0;connectable=1;" parent="1" edge="1">
          <mxGeometry width="50" height="50" relative="1" as="geometry">
            <mxPoint x="413" y="59.06" as="sourcePoint" />
            <mxPoint x="413" y="19.689999999999998" as="targetPoint" />
          </mxGeometry>
        </mxCell>
        <mxCell id="BJZrzUYKFe9HMTDBOYGV-11" value="" style="endArrow=none;html=1;rounded=0;strokeWidth=3;movable=1;resizable=1;rotatable=1;deletable=1;editable=1;locked=0;connectable=1;" parent="1" edge="1">
          <mxGeometry width="50" height="50" relative="1" as="geometry">
            <mxPoint x="19.68499999999993" y="580.6450000000001" as="sourcePoint" />
            <mxPoint x="59.35" y="580.6450000000001" as="targetPoint" />
          </mxGeometry>
        </mxCell>
        <mxCell id="BJZrzUYKFe9HMTDBOYGV-12" value="" style="endArrow=none;html=1;rounded=0;strokeWidth=3;movable=1;resizable=1;rotatable=1;deletable=1;editable=1;locked=0;connectable=1;" parent="1" edge="1">
          <mxGeometry width="50" height="50" relative="1" as="geometry">
            <mxPoint x="768.08" y="580.6450000000001" as="sourcePoint" />
            <mxPoint x="807.08" y="580.6450000000001" as="targetPoint" />
          </mxGeometry>
        </mxCell>
        <mxCell id="BJZrzUYKFe9HMTDBOYGV-37" value="" style="endArrow=none;html=1;rounded=0;movable=1;resizable=1;rotatable=1;deletable=1;editable=1;locked=0;connectable=1;" parent="1" edge="1">
          <mxGeometry width="50" height="50" relative="1" as="geometry">
            <mxPoint x="610.2325000000001" y="1141.7325" as="sourcePoint" />
            <mxPoint x="610.2325000000001" y="1121.99" as="targetPoint" />
          </mxGeometry>
        </mxCell>
        <mxCell id="BJZrzUYKFe9HMTDBOYGV-39" value="" style="endArrow=none;html=1;rounded=0;movable=1;resizable=1;rotatable=1;deletable=1;editable=1;locked=0;connectable=1;" parent="1" edge="1">
          <mxGeometry width="50" height="50" relative="1" as="geometry">
            <mxPoint x="216.53749999999985" y="1141.7275" as="sourcePoint" />
            <mxPoint x="216.53749999999985" y="1122" as="targetPoint" />
          </mxGeometry>
        </mxCell>
        <mxCell id="BJZrzUYKFe9HMTDBOYGV-48" value="" style="endArrow=none;html=1;rounded=0;movable=1;resizable=1;rotatable=1;deletable=1;editable=1;locked=0;connectable=1;" parent="1" edge="1">
          <mxGeometry width="50" height="50" relative="1" as="geometry">
            <mxPoint x="787.215" y="777.555" as="sourcePoint" />
            <mxPoint x="807.265" y="777.555" as="targetPoint" />
          </mxGeometry>
        </mxCell>
        <mxCell id="BJZrzUYKFe9HMTDBOYGV-58" value="E" style="text;html=1;strokeColor=none;fillColor=none;align=center;verticalAlign=middle;whiteSpace=wrap;rounded=0;fontFamily=Open Sans;fontSize=18;movable=1;resizable=1;rotatable=1;deletable=1;editable=1;locked=0;connectable=1;" parent="1" vertex="1">
          <mxGeometry x="787.3999999999999" y="866.1424999999998" width="19.685" height="19.685" as="geometry" />
        </mxCell>
        <mxCell id="BJZrzUYKFe9HMTDBOYGV-78" value="1" style="text;html=1;strokeColor=none;fillColor=none;align=center;verticalAlign=middle;whiteSpace=wrap;rounded=0;fontFamily=Open Sans;fontSize=18;movable=1;resizable=1;rotatable=1;deletable=1;editable=1;locked=0;connectable=1;" parent="1" vertex="1">
          <mxGeometry x="108.26750000000004" y="1122.0575" width="19.685" height="19.685" as="geometry" />
        </mxCell>
        <mxCell id="BJZrzUYKFe9HMTDBOYGV-79" value="2" style="text;html=1;strokeColor=none;fillColor=none;align=center;verticalAlign=middle;whiteSpace=wrap;rounded=0;fontFamily=Open Sans;fontSize=18;movable=1;resizable=1;rotatable=1;deletable=1;editable=1;locked=0;connectable=1;" parent="1" vertex="1">
          <mxGeometry x="305.11" y="1122.05" width="19.685" height="19.685" as="geometry" />
        </mxCell>
        <mxCell id="BJZrzUYKFe9HMTDBOYGV-80" value="3" style="text;html=1;strokeColor=none;fillColor=none;align=center;verticalAlign=middle;whiteSpace=wrap;rounded=0;fontFamily=Open Sans;fontSize=18;movable=1;resizable=1;rotatable=1;deletable=1;editable=1;locked=0;connectable=1;" parent="1" vertex="1">
          <mxGeometry x="501.9624999999999" y="1122.0525" width="19.685" height="19.685" as="geometry" />
        </mxCell>
        <mxCell id="BJZrzUYKFe9HMTDBOYGV-81" value="4" style="text;html=1;strokeColor=none;fillColor=none;align=center;verticalAlign=middle;whiteSpace=wrap;rounded=0;fontFamily=Open Sans;fontSize=18;movable=1;resizable=1;rotatable=1;deletable=1;editable=1;locked=0;connectable=1;" parent="1" vertex="1">
          <mxGeometry x="698.8149999999998" y="1122.0549999999998" width="19.685" height="19.685" as="geometry" />
        </mxCell>
        <mxCell id="h7L3MlKvrl_dhOmhB3lf-10" value="Prepared with: draw.io v22.0.0" style="strokeWidth=1;shadow=0;dashed=0;align=center;html=1;shape=mxgraph.mockup.text.textBox;fontColor=#666666;align=left;fontSize=17;spacingLeft=4;spacingTop=-3;whiteSpace=wrap;strokeColor=#333333;mainText=;fillColor=none;fontFamily=Open Sans;movable=1;resizable=1;rotatable=1;deletable=1;editable=1;locked=0;connectable=1;" parent="1" vertex="1">
          <mxGeometry x="228.89999999999998" y="1092.05" width="280" height="30" as="geometry" />
        </mxCell>
        <object label="&lt;div align=&quot;left&quot;&gt;Sheet %pagenumber%/%pagecount%&lt;/div&gt;" placeholders="1" id="h7L3MlKvrl_dhOmhB3lf-12">
          <mxCell style="strokeWidth=1;shadow=0;dashed=0;align=left;html=1;shape=mxgraph.mockup.text.textBox;fontColor=#666666;align=left;fontSize=17;spacingLeft=4;spacingTop=-3;whiteSpace=wrap;strokeColor=#333333;mainText=;fillColor=none;fontFamily=Open Sans;movable=1;resizable=1;rotatable=1;deletable=1;editable=1;locked=0;connectable=1;" parent="1" vertex="1">
            <mxGeometry x="68.90000000000003" y="1092.05" width="160" height="30" as="geometry" />
          </mxCell>
        </object>
        <object label="Date: &lt;font style=&quot;font-size: 17px;&quot;&gt;%date{ddd mmm dd yyyy HH:MM:ss}%&lt;/font&gt;" placeholders="1" id="h7L3MlKvrl_dhOmhB3lf-13">
          <mxCell style="strokeWidth=1;shadow=0;dashed=0;align=center;html=1;shape=mxgraph.mockup.text.textBox;fontColor=#666666;align=left;fontSize=17;spacingLeft=4;spacingTop=-3;whiteSpace=wrap;strokeColor=#333333;mainText=;fillColor=none;fontFamily=Open Sans;movable=1;resizable=1;rotatable=1;deletable=1;editable=1;locked=0;connectable=1;" parent="1" vertex="1">
            <mxGeometry x="508.9" y="1092.05" width="278.5" height="30" as="geometry" />
          </mxCell>
        </object>
        <object label="&lt;b&gt;Title: %page%&lt;/b&gt;" placeholders="1" id="h7L3MlKvrl_dhOmhB3lf-14">
          <mxCell style="strokeWidth=1;shadow=0;dashed=0;align=center;html=1;shape=mxgraph.mockup.text.textBox;fontColor=#666666;align=left;fontSize=17;spacingLeft=4;spacingTop=-3;whiteSpace=wrap;strokeColor=#333333;mainText=;fillColor=none;fontFamily=Open Sans;movable=1;resizable=1;rotatable=1;deletable=1;editable=1;locked=0;connectable=1;" parent="1" vertex="1">
            <mxGeometry x="68.90000000000003" y="1002.05" width="600" height="30" as="geometry" />
          </mxCell>
        </object>
        <object label="Filename: %filename%" placeholders="1" id="h7L3MlKvrl_dhOmhB3lf-15">
          <mxCell style="strokeWidth=1;shadow=0;dashed=0;align=center;html=1;shape=mxgraph.mockup.text.textBox;fontColor=#666666;align=left;fontSize=17;spacingLeft=4;spacingTop=-3;whiteSpace=wrap;strokeColor=#333333;mainText=;fillColor=none;fontFamily=Open Sans;movable=1;resizable=1;rotatable=1;deletable=1;editable=1;locked=0;connectable=1;" parent="1" vertex="1">
            <mxGeometry x="68.90000000000003" y="1032.05" width="400" height="30" as="geometry" />
          </mxCell>
        </object>
        <object label="&lt;div align=&quot;left&quot;&gt;%description%&lt;/div&gt;" placeholders="1" id="h7L3MlKvrl_dhOmhB3lf-16">
          <mxCell style="strokeWidth=1;shadow=0;dashed=0;html=1;shape=mxgraph.mockup.text.textBox;fontColor=#666666;align=left;verticalAlign=top;fontSize=12;spacingLeft=4;spacingTop=-3;whiteSpace=wrap;strokeColor=#333333;mainText=;fillColor=none;fontFamily=Open Sans;movable=1;resizable=1;rotatable=1;deletable=1;editable=1;locked=0;connectable=1;" parent="1" vertex="1">
            <mxGeometry x="68.9" y="912.05" width="718.5" height="90" as="geometry" />
          </mxCell>
        </object>
        <object label="&lt;b&gt;Rev: %rev%&lt;br&gt;&lt;/b&gt;" placeholders="1" id="EyKvBmyPNv_MzgSUc5b6-1">
          <mxCell style="strokeWidth=1;shadow=0;dashed=0;align=center;html=1;shape=mxgraph.mockup.text.textBox;fontColor=#666666;align=left;fontSize=17;spacingLeft=4;spacingTop=-3;whiteSpace=wrap;strokeColor=#333333;mainText=;fillColor=none;fontFamily=Open Sans;movable=1;resizable=1;rotatable=1;deletable=1;editable=1;locked=0;connectable=1;" parent="1" vertex="1">
            <mxGeometry x="668.9" y="1002.05" width="118.5" height="30" as="geometry" />
          </mxCell>
        </object>
        <object label="&lt;div align=&quot;left&quot;&gt;Size: %size%&lt;/div&gt;" placeholders="1" id="kxruepuoSyuf0zwoeRE9-5">
          <mxCell style="strokeWidth=1;shadow=0;dashed=0;align=left;html=1;shape=mxgraph.mockup.text.textBox;fontColor=#666666;align=left;fontSize=17;spacingLeft=4;spacingTop=-3;whiteSpace=wrap;strokeColor=#333333;mainText=;fillColor=none;fontFamily=Open Sans;movable=1;resizable=1;rotatable=1;deletable=1;editable=1;locked=0;connectable=1;" parent="1" vertex="1">
            <mxGeometry x="588.9" y="1062.05" width="198.5" height="30" as="geometry" />
          </mxCell>
        </object>
        <object label="&lt;div align=&quot;left&quot;&gt;Scale: %scale%&lt;/div&gt;" placeholders="1" id="kxruepuoSyuf0zwoeRE9-6">
          <mxCell style="strokeWidth=1;shadow=0;dashed=0;align=left;html=1;shape=mxgraph.mockup.text.textBox;fontColor=#666666;align=left;fontSize=17;spacingLeft=4;spacingTop=-3;whiteSpace=wrap;strokeColor=#333333;mainText=;fillColor=none;fontFamily=Open Sans;movable=1;resizable=1;rotatable=1;deletable=1;editable=1;locked=0;connectable=1;" parent="1" vertex="1">
            <mxGeometry x="468.9" y="1062.05" width="120" height="30" as="geometry" />
          </mxCell>
        </object>
        <object label="Prepared By: %author%" placeholders="1" id="kxruepuoSyuf0zwoeRE9-7">
          <mxCell style="strokeWidth=1;shadow=0;dashed=0;align=center;html=1;shape=mxgraph.mockup.text.textBox;fontColor=#666666;align=left;fontSize=17;spacingLeft=4;spacingTop=-3;whiteSpace=wrap;strokeColor=#333333;mainText=;fillColor=none;fontFamily=Open Sans;movable=1;resizable=1;rotatable=1;deletable=1;editable=1;locked=0;connectable=1;" parent="1" vertex="1">
            <mxGeometry x="68.90000000000003" y="1062.05" width="400" height="30" as="geometry" />
          </mxCell>
        </object>
        <object label="%extra_label% %dwg_no%%part_num%%serial_num%" placeholders="1" id="kxruepuoSyuf0zwoeRE9-8">
          <mxCell style="strokeWidth=1;shadow=0;dashed=0;align=center;html=1;shape=mxgraph.mockup.text.textBox;fontColor=#666666;align=left;fontSize=17;spacingLeft=4;spacingTop=-3;whiteSpace=wrap;strokeColor=#333333;mainText=;fillColor=none;fontFamily=Open Sans;movable=1;resizable=1;rotatable=1;deletable=1;editable=1;locked=0;connectable=1;" parent="1" vertex="1">
            <mxGeometry x="468.9" y="1032.05" width="318.5" height="30" as="geometry" />
          </mxCell>
        </object>
        <mxCell id="OLBhReI0X-7dMYb3t88i-6" value="" style="endArrow=none;html=1;rounded=0;movable=1;resizable=1;rotatable=1;deletable=1;editable=1;locked=0;connectable=1;" parent="1" edge="1">
          <mxGeometry width="50" height="50" relative="1" as="geometry">
            <mxPoint x="787.2149999999999" y="187.01" as="sourcePoint" />
            <mxPoint x="807.2649999999999" y="187.01" as="targetPoint" />
          </mxGeometry>
        </mxCell>
        <mxCell id="OLBhReI0X-7dMYb3t88i-7" value="A" style="text;html=1;strokeColor=none;fillColor=none;align=center;verticalAlign=middle;whiteSpace=wrap;rounded=0;fontFamily=Open Sans;fontSize=18;movable=1;resizable=1;rotatable=1;deletable=1;editable=1;locked=0;connectable=1;" parent="1" vertex="1">
          <mxGeometry x="787.395" y="78.745" width="19.685" height="19.685" as="geometry" />
        </mxCell>
        <mxCell id="OLBhReI0X-7dMYb3t88i-8" value="" style="endArrow=none;html=1;rounded=0;movable=1;resizable=1;rotatable=1;deletable=1;editable=1;locked=0;connectable=1;" parent="1" edge="1">
          <mxGeometry width="50" height="50" relative="1" as="geometry">
            <mxPoint x="787.2175" y="974.4074999999999" as="sourcePoint" />
            <mxPoint x="807.2674999999999" y="974.4074999999999" as="targetPoint" />
          </mxGeometry>
        </mxCell>
        <mxCell id="OLBhReI0X-7dMYb3t88i-9" value="F" style="text;html=1;strokeColor=none;fillColor=none;align=center;verticalAlign=middle;whiteSpace=wrap;rounded=0;fontFamily=Open Sans;fontSize=18;movable=1;resizable=1;rotatable=1;deletable=1;editable=1;locked=0;connectable=1;" parent="1" vertex="1">
          <mxGeometry x="787.4024999999998" y="1062.995" width="19.685" height="19.685" as="geometry" />
        </mxCell>
        <mxCell id="OLBhReI0X-7dMYb3t88i-10" value="" style="endArrow=none;html=1;rounded=0;movable=1;resizable=1;rotatable=1;deletable=1;editable=1;locked=0;connectable=1;" parent="1" edge="1">
          <mxGeometry width="50" height="50" relative="1" as="geometry">
            <mxPoint x="19.50250000000001" y="187.0025" as="sourcePoint" />
            <mxPoint x="39.5525" y="187.0025" as="targetPoint" />
          </mxGeometry>
        </mxCell>
        <mxCell id="OLBhReI0X-7dMYb3t88i-11" value="A" style="text;html=1;strokeColor=none;fillColor=none;align=center;verticalAlign=middle;whiteSpace=wrap;rounded=0;fontFamily=Open Sans;fontSize=18;movable=1;resizable=1;rotatable=1;deletable=1;editable=1;locked=0;connectable=1;" parent="1" vertex="1">
          <mxGeometry x="19.6825" y="78.74249999999996" width="19.685" height="19.685" as="geometry" />
        </mxCell>
        <mxCell id="OLBhReI0X-7dMYb3t88i-12" value="" style="endArrow=none;html=1;rounded=0;movable=1;resizable=1;rotatable=1;deletable=1;editable=1;locked=0;connectable=1;" parent="1" edge="1">
          <mxGeometry width="50" height="50" relative="1" as="geometry">
            <mxPoint x="19.505000000000003" y="974.415" as="sourcePoint" />
            <mxPoint x="39.555" y="974.415" as="targetPoint" />
          </mxGeometry>
        </mxCell>
        <mxCell id="OLBhReI0X-7dMYb3t88i-13" value="F" style="text;html=1;strokeColor=none;fillColor=none;align=center;verticalAlign=middle;whiteSpace=wrap;rounded=0;fontFamily=Open Sans;fontSize=18;movable=1;resizable=1;rotatable=1;deletable=1;editable=1;locked=0;connectable=1;" parent="1" vertex="1">
          <mxGeometry x="19.700000000000003" y="1062.9924999999998" width="19.685" height="19.685" as="geometry" />
        </mxCell>
        <object label="Drawing Frame" id="BJZrzUYKFe9HMTDBOYGV-83">
          <mxCell style="locked=1;" parent="0" />
        </object>
        <mxCell id="BJZrzUYKFe9HMTDBOYGV-84" value="" style="rounded=0;whiteSpace=wrap;html=1;fillColor=none;strokeWidth=3;movable=1;resizable=1;rotatable=1;deletable=1;editable=1;locked=0;connectable=1;" parent="BJZrzUYKFe9HMTDBOYGV-83" vertex="1">
          <mxGeometry x="39.002500000000005" y="39.36" width="748.03" height="1082.675" as="geometry" />
        </mxCell>
        <object label="Document" id="NbdiYjX3MhI7OpqD2NvG-1">
          <mxCell parent="0" />
        </object>
        <mxCell id="kxruepuoSyuf0zwoeRE9-1" value="This text is on the document layer. Lower layers have the title block and grid reference frame. These layers are locked to prevent disturbance, but you can unlock them in the &quot;Layers&quot; panel." style="text;html=1;strokeColor=none;fillColor=none;align=center;verticalAlign=middle;whiteSpace=wrap;rounded=0;fontFamily=Open Sans;" parent="NbdiYjX3MhI7OpqD2NvG-1" vertex="1">
          <mxGeometry x="84.00000000000003" y="98.42999999999998" width="330" height="70" as="geometry" />
        </mxCell>
      </root>
    </mxGraphModel>
  </diagram>
</mxfile>
